<svg id="svg" version="1.1" width="400" height="161.9016176956091" viewBox="0 0 400 161.9016176956091" xmlns="http://www.w3.org/2000/svg" xmlns:xlink="http://www.w3.org/1999/xlink" ><g id="svgg"><path id="path0" d="M33.000 38.330 L 33.000 43.660 36.625 43.705 L 40.250 43.750 40.250 66.750 L 40.250 89.750 36.625 89.795 L 33.000 89.840 33.000 95.170 L 33.000 100.500 42.250 100.500 L 51.500 100.500 51.500 85.917 L 51.500 71.333 58.298 71.333 C 65.669 71.333,66.190 71.385,67.917 72.278 C 75.602 76.257,74.243 87.470,65.823 89.562 C 64.963 89.775,63.866 89.833,60.698 89.833 L 56.667 89.833 56.667 95.185 L 56.667 100.537 61.375 100.458 C 64.978 100.398,66.396 100.312,67.417 100.091 C 82.858 96.749,88.930 79.018,78.793 66.870 L 77.641 65.490 78.465 64.203 C 83.858 55.781,82.687 45.516,75.548 38.651 C 71.346 34.610,66.861 33.011,59.708 33.003 L 56.667 33.000 56.667 38.333 L 56.667 43.667 59.656 43.667 C 64.192 43.667,65.905 44.171,68.021 46.130 C 73.391 51.100,71.077 59.920,63.923 61.746 C 63.129 61.949,61.785 62.000,57.215 62.000 L 51.500 62.000 51.500 47.500 L 51.500 33.000 42.250 33.000 L 33.000 33.000 33.000 38.330 M147.333 50.663 L 147.333 56.167 147.847 56.167 C 153.068 56.167,159.974 62.305,161.396 68.208 L 161.506 68.667 152.087 68.667 L 142.667 68.667 142.667 73.417 L 142.667 78.167 157.655 78.167 L 172.643 78.167 172.769 77.208 C 174.793 61.878,163.650 46.923,149.083 45.419 C 148.533 45.362,147.915 45.281,147.708 45.238 L 147.333 45.160 147.333 50.663 M200.000 50.254 C 200.000 55.264,200.007 55.366,200.341 55.454 C 202.892 56.121,205.385 58.515,206.333 61.209 L 206.641 62.083 211.320 62.128 L 216.000 62.172 216.000 54.336 L 216.000 46.500 212.261 46.500 C 208.062 46.500,208.459 46.364,208.253 47.877 L 208.145 48.672 207.448 48.108 C 205.876 46.837,203.191 45.624,201.500 45.420 C 200.996 45.359,200.452 45.272,200.292 45.227 C 200.018 45.149,200.000 45.467,200.000 50.254 M282.917 45.266 C 278.831 45.656,275.378 46.962,272.196 49.322 C 270.652 50.466,270.551 50.593,270.881 50.969 C 271.863 52.086,274.120 56.712,275.024 59.455 C 275.648 61.351,275.669 61.374,276.126 60.653 C 280.163 54.276,289.637 54.812,292.771 61.594 C 293.947 64.139,293.891 63.149,293.956 82.792 L 294.014 100.500 303.176 100.500 L 312.338 100.500 312.294 95.125 L 312.250 89.750 308.708 89.705 L 305.167 89.660 305.163 77.705 C 305.159 63.014,305.080 62.198,303.226 57.797 C 299.782 49.624,291.407 44.457,282.917 45.266 M334.017 45.352 C 329.815 45.725,324.344 48.055,321.525 50.674 L 320.966 51.192 322.358 52.634 C 323.124 53.428,324.730 55.082,325.928 56.310 L 328.106 58.544 329.178 57.754 C 335.631 53.000,344.784 55.553,347.738 62.932 C 348.638 65.181,348.665 65.780,348.666 83.875 L 348.667 100.500 357.833 100.500 L 367.000 100.500 367.000 95.167 L 367.000 89.833 363.417 89.833 L 359.833 89.833 359.832 78.458 C 359.831 71.899,359.759 66.448,359.662 65.583 C 358.458 54.872,349.564 46.304,338.647 45.337 C 336.543 45.151,336.264 45.152,334.017 45.352 M223.667 51.917 L 223.667 57.333 227.250 57.333 L 230.833 57.333 230.833 73.500 L 230.833 89.667 227.250 89.667 L 223.667 89.667 223.667 95.083 L 223.667 100.500 232.833 100.500 L 242.000 100.500 242.000 73.500 L 242.000 46.500 232.833 46.500 L 223.667 46.500 223.667 51.917 M200.807 118.383 C 198.014 119.670,198.568 123.377,201.648 124.012 C 204.055 124.508,204.990 126.210,203.613 127.587 C 202.195 129.005,200.126 128.275,199.471 126.125 C 199.111 124.943,198.833 125.349,198.833 127.056 L 198.833 128.613 199.432 128.635 C 199.762 128.648,200.477 128.738,201.021 128.837 C 204.109 129.397,206.503 126.942,205.349 124.400 C 204.942 123.505,204.384 123.133,202.659 122.609 C 200.975 122.098,200.498 121.681,200.378 120.618 C 200.119 118.315,203.325 117.916,204.159 120.147 C 204.722 121.653,205.000 121.508,205.000 119.708 L 205.000 118.250 203.125 118.215 C 201.925 118.192,201.091 118.253,200.807 118.383 M216.067 118.484 C 213.646 119.583,213.961 123.151,216.539 123.842 C 219.313 124.587,220.171 125.577,219.382 127.122 C 218.431 128.982,216.104 128.664,215.089 126.536 C 214.377 125.043,214.167 125.162,214.167 127.056 L 214.167 128.613 214.766 128.635 C 215.095 128.648,215.813 128.739,216.361 128.838 C 219.111 129.337,221.111 127.833,220.963 125.376 C 220.873 123.873,220.309 123.328,218.157 122.664 C 216.007 122.000,215.418 121.289,215.869 119.905 C 216.462 118.092,218.998 118.324,219.605 120.248 C 220.084 121.770,220.500 121.549,220.500 119.773 L 220.500 118.379 219.727 118.273 C 218.273 118.073,216.782 118.160,216.067 118.484 M327.355 120.037 C 324.174 128.239,324.399 127.764,323.604 127.970 C 322.247 128.321,322.892 128.667,324.904 128.667 C 326.845 128.667,327.627 128.350,326.375 128.071 C 325.136 127.795,325.169 127.886,325.724 126.241 L 326.114 125.083 327.932 125.083 L 329.750 125.083 330.279 126.500 C 330.570 127.279,330.758 127.929,330.696 127.945 C 330.634 127.960,330.302 128.020,329.958 128.077 C 329.570 128.142,329.333 128.274,329.333 128.424 C 329.333 128.624,329.715 128.667,331.500 128.667 C 333.759 128.667,334.471 128.390,333.065 128.058 C 332.481 127.919,332.442 127.860,331.716 125.999 C 330.470 122.808,329.700 120.814,329.205 119.500 C 328.499 117.622,328.265 117.690,327.355 120.037 M361.873 118.518 C 359.293 119.796,360.085 123.953,362.917 123.998 C 364.257 124.019,365.656 125.428,365.435 126.533 C 364.954 128.939,361.767 128.881,360.861 126.451 C 360.306 124.961,360.000 125.187,360.000 127.089 C 360.000 128.339,360.048 128.684,360.215 128.620 C 360.334 128.574,361.055 128.645,361.817 128.777 C 364.786 129.289,366.833 128.044,366.833 125.726 C 366.833 124.051,366.166 123.335,363.974 122.659 C 361.787 121.984,361.057 121.006,361.746 119.674 C 362.576 118.069,364.894 118.428,365.422 120.244 C 365.875 121.803,366.333 121.566,366.333 119.773 L 366.333 118.379 365.560 118.273 C 363.995 118.058,362.618 118.150,361.873 118.518 M33.667 119.762 C 33.667 121.431,34.014 121.673,34.486 120.333 C 34.938 119.050,34.993 119.004,36.217 118.889 L 37.333 118.785 37.333 123.393 L 37.333 128.000 36.930 128.000 C 36.355 128.000,36.000 128.166,36.000 128.434 C 36.000 128.621,36.426 128.667,38.167 128.667 C 39.908 128.667,40.333 128.621,40.333 128.434 C 40.333 128.166,39.978 128.000,39.403 128.000 L 39.000 128.000 39.000 123.393 L 39.000 118.786 40.042 118.892 C 41.239 119.014,41.568 119.292,41.876 120.445 C 42.241 121.808,42.667 121.433,42.667 119.750 L 42.667 118.333 38.167 118.333 L 33.667 118.333 33.667 119.762 M50.667 118.564 C 50.667 118.806,51.156 118.994,51.794 118.998 L 52.172 119.000 52.128 123.456 C 52.085 127.767,52.072 127.914,51.750 127.963 C 50.904 128.090,50.667 128.191,50.667 128.420 C 50.667 128.625,51.031 128.667,52.833 128.667 C 54.574 128.667,55.000 128.621,55.000 128.434 C 55.000 128.166,54.645 128.000,54.070 128.000 L 53.667 128.000 53.667 125.833 L 53.667 123.667 56.167 123.667 L 58.667 123.667 58.667 125.833 L 58.667 128.000 58.264 128.000 C 57.688 128.000,57.333 128.166,57.333 128.434 C 57.333 128.621,57.759 128.667,59.500 128.667 C 61.241 128.667,61.667 128.621,61.667 128.434 C 61.667 128.154,61.308 128.000,60.653 128.000 L 60.167 128.000 60.167 123.500 L 60.167 119.000 60.542 118.998 C 61.178 118.994,61.667 118.805,61.667 118.564 C 61.667 118.379,61.234 118.333,59.500 118.333 C 57.693 118.333,57.333 118.374,57.333 118.581 C 57.333 118.742,57.569 118.867,58.000 118.936 L 58.667 119.043 58.667 121.021 L 58.667 123.000 56.167 123.000 L 53.667 123.000 53.667 121.021 L 53.667 119.043 54.333 118.936 C 54.765 118.867,55.000 118.742,55.000 118.581 C 55.000 118.374,54.641 118.333,52.833 118.333 C 51.100 118.333,50.667 118.379,50.667 118.564 M70.167 118.581 C 70.167 118.742,70.402 118.867,70.833 118.936 L 71.500 119.043 71.500 123.521 L 71.500 128.000 71.097 128.000 C 70.522 128.000,70.167 128.166,70.167 128.434 C 70.167 128.627,70.880 128.667,74.311 128.667 L 78.455 128.667 78.561 127.893 C 78.881 125.557,78.468 124.960,77.753 126.724 C 77.219 128.040,76.545 128.295,74.208 128.064 L 73.167 127.961 73.167 125.814 L 73.167 123.667 74.094 123.667 C 75.288 123.667,75.615 123.855,75.834 124.670 C 76.213 126.076,76.500 125.500,76.500 123.333 C 76.500 121.105,76.279 120.723,75.766 122.066 C 75.457 122.874,75.224 122.994,73.958 122.998 L 73.167 123.000 73.167 120.917 L 73.167 118.833 74.458 118.853 C 76.520 118.885,76.688 118.953,77.167 119.958 C 77.764 121.212,78.000 121.106,78.000 119.583 L 78.000 118.333 74.083 118.333 C 70.727 118.333,70.167 118.369,70.167 118.581 M98.000 118.573 C 98.000 118.730,98.261 118.852,98.750 118.925 L 99.500 119.038 99.500 123.519 L 99.500 128.000 99.125 128.002 C 98.489 128.006,98.000 128.195,98.000 128.436 C 98.000 128.626,98.704 128.667,101.992 128.667 L 105.985 128.667 106.067 128.125 C 106.475 125.449,106.072 124.512,105.356 126.474 C 104.813 127.963,104.052 128.313,101.898 128.060 L 101.000 127.954 101.000 123.477 L 101.000 119.000 101.375 118.998 C 102.011 118.994,102.500 118.805,102.500 118.564 C 102.500 118.379,102.055 118.333,100.250 118.333 C 98.404 118.333,98.000 118.376,98.000 118.573 M114.333 118.581 C 114.333 118.742,114.569 118.867,115.000 118.936 L 115.667 119.043 115.667 123.521 L 115.667 128.000 115.264 128.000 C 114.688 128.000,114.333 128.166,114.333 128.434 C 114.333 128.621,114.759 128.667,116.500 128.667 C 118.241 128.667,118.667 128.621,118.667 128.434 C 118.667 128.166,118.312 128.000,117.736 128.000 L 117.333 128.000 117.333 123.521 L 117.333 119.043 118.000 118.936 C 118.431 118.867,118.667 118.742,118.667 118.581 C 118.667 118.374,118.307 118.333,116.500 118.333 C 114.693 118.333,114.333 118.374,114.333 118.581 M127.167 118.574 C 127.167 118.723,127.434 118.867,127.875 118.954 L 128.583 119.094 128.628 123.318 C 128.676 127.888,128.666 127.946,127.781 128.032 C 127.436 128.066,127.234 128.185,127.197 128.375 C 127.148 128.638,127.316 128.667,128.904 128.667 C 131.024 128.667,131.470 128.295,129.792 127.927 L 129.333 127.827 129.338 123.455 C 129.341 120.831,129.403 119.184,129.491 119.336 C 129.620 119.555,130.119 120.989,132.291 127.375 C 132.977 129.392,133.015 129.344,134.985 123.917 C 135.934 121.304,136.738 119.167,136.772 119.167 C 136.806 119.167,136.833 121.154,136.833 123.583 L 136.833 128.000 136.430 128.000 C 135.855 128.000,135.500 128.166,135.500 128.434 C 135.500 128.621,135.926 128.667,137.667 128.667 C 139.469 128.667,139.833 128.625,139.833 128.420 C 139.833 128.191,139.596 128.091,138.750 127.963 C 138.426 127.914,138.417 127.784,138.417 123.503 L 138.417 119.094 139.125 118.954 C 140.630 118.656,140.004 118.318,138.046 118.369 L 136.259 118.417 135.812 119.667 C 135.566 120.354,134.964 122.059,134.474 123.456 C 133.984 124.852,133.540 125.996,133.486 125.998 C 133.402 126.000,132.163 122.522,131.127 119.375 L 130.784 118.333 128.975 118.333 C 127.512 118.333,127.167 118.379,127.167 118.574 M148.333 118.558 C 148.333 118.726,148.576 118.862,149.042 118.954 L 149.750 119.094 149.750 123.503 C 149.750 127.784,149.740 127.914,149.417 127.963 C 148.571 128.091,148.333 128.191,148.333 128.420 C 148.333 128.730,153.409 128.778,154.594 128.480 C 157.442 127.763,157.612 124.029,154.829 123.316 L 154.038 123.113 154.726 122.765 C 156.558 121.838,156.676 119.645,154.944 118.709 C 154.183 118.298,148.333 118.164,148.333 118.558 M165.333 118.564 C 165.333 118.805,165.822 118.994,166.458 118.998 L 166.833 119.000 166.833 123.500 L 166.833 128.000 166.458 128.002 C 165.822 128.006,165.333 128.195,165.333 128.436 C 165.333 128.635,173.275 128.822,173.349 128.625 C 173.358 128.602,173.414 127.890,173.474 127.042 C 173.610 125.118,173.273 124.874,172.690 126.474 C 172.146 127.963,171.385 128.313,169.232 128.060 L 168.333 127.954 168.333 123.477 L 168.333 119.000 168.708 118.998 C 169.345 118.994,169.833 118.805,169.833 118.564 C 169.833 118.379,169.388 118.333,167.583 118.333 C 165.779 118.333,165.333 118.379,165.333 118.564 M181.667 118.581 C 181.667 118.742,181.902 118.867,182.333 118.936 L 183.000 119.043 183.000 123.521 L 183.000 128.000 182.597 128.000 C 182.022 128.000,181.667 128.166,181.667 128.434 C 181.667 128.627,182.380 128.667,185.810 128.667 L 189.954 128.667 190.059 127.792 C 190.328 125.550,189.949 124.914,189.325 126.560 C 188.789 127.974,187.782 128.370,185.495 128.067 L 184.667 127.957 184.667 125.812 L 184.667 123.667 185.667 123.667 C 186.832 123.667,187.333 124.018,187.333 124.833 C 187.333 125.222,187.407 125.333,187.667 125.333 C 187.981 125.333,188.000 125.222,188.000 123.333 C 188.000 121.444,187.981 121.333,187.667 121.333 C 187.421 121.333,187.333 121.444,187.333 121.758 C 187.333 122.512,186.650 123.000,185.591 123.000 L 184.667 123.000 184.667 120.917 L 184.667 118.833 185.958 118.853 C 188.022 118.885,188.188 118.952,188.667 119.961 C 189.263 121.218,189.570 121.084,189.632 119.540 L 189.681 118.333 185.674 118.333 C 182.237 118.333,181.667 118.369,181.667 118.581 M238.167 118.576 C 238.167 118.719,238.395 118.861,238.722 118.922 C 239.253 119.022,239.309 119.106,239.960 120.805 C 240.336 121.783,241.028 123.589,241.500 124.817 C 241.971 126.046,242.507 127.452,242.691 127.942 C 243.276 129.507,243.393 129.350,245.410 124.292 C 247.293 119.571,247.558 119.087,248.354 118.912 C 249.606 118.637,248.851 118.333,246.917 118.333 C 245.389 118.333,245.000 118.381,245.000 118.566 C 245.000 118.811,245.344 118.998,245.805 119.003 C 246.480 119.009,246.522 119.225,246.097 120.512 C 245.686 121.754,244.079 125.905,243.889 126.212 C 243.744 126.446,243.667 126.275,242.369 122.833 C 240.822 118.731,240.891 119.000,241.392 119.000 C 241.978 119.000,242.333 118.836,242.333 118.566 C 242.333 118.379,241.920 118.333,240.250 118.333 C 238.538 118.333,238.167 118.377,238.167 118.576 M256.167 118.574 C 256.167 118.723,256.434 118.867,256.875 118.954 L 257.583 119.094 257.583 123.503 C 257.583 127.784,257.574 127.914,257.250 127.963 C 256.404 128.091,256.167 128.191,256.167 128.420 C 256.167 128.631,256.774 128.667,260.417 128.667 L 264.667 128.667 264.667 127.688 C 264.667 127.149,264.714 126.474,264.771 126.188 C 264.974 125.170,264.304 125.524,263.860 126.668 C 263.348 127.988,262.408 128.335,260.083 128.062 L 259.167 127.954 259.167 125.810 L 259.167 123.667 260.224 123.667 C 261.411 123.667,261.715 123.870,261.911 124.792 C 261.993 125.175,262.120 125.333,262.347 125.333 C 262.644 125.333,262.667 125.195,262.667 123.333 C 262.667 121.460,262.646 121.333,262.341 121.333 C 262.100 121.333,261.986 121.487,261.905 121.921 C 261.755 122.720,261.294 123.000,260.130 123.000 L 259.167 123.000 259.167 120.917 L 259.167 118.833 260.375 118.835 C 262.592 118.839,262.817 118.924,263.283 119.942 C 263.880 121.247,264.167 121.130,264.167 119.583 L 264.167 118.333 260.167 118.333 C 256.795 118.333,256.167 118.371,256.167 118.574 M272.667 119.750 C 272.667 121.455,273.077 121.787,273.484 120.410 C 273.848 119.176,274.090 118.985,275.334 118.949 L 276.417 118.917 276.417 123.414 C 276.417 127.784,276.407 127.914,276.083 127.963 C 275.237 128.091,275.000 128.191,275.000 128.420 C 275.000 128.626,275.374 128.667,277.250 128.667 C 279.055 128.667,279.500 128.621,279.500 128.436 C 279.500 128.195,279.011 128.006,278.375 128.002 L 278.000 128.000 278.000 123.394 L 278.000 118.787 279.012 118.879 C 280.222 118.989,280.581 119.264,280.877 120.313 C 281.275 121.722,281.667 121.448,281.667 119.762 L 281.667 118.333 277.167 118.333 L 272.667 118.333 272.667 119.750 M289.833 118.581 C 289.833 118.742,290.069 118.867,290.500 118.936 L 291.167 119.043 291.167 123.521 L 291.167 128.000 290.764 128.000 C 290.188 128.000,289.833 128.166,289.833 128.434 C 289.833 128.627,290.547 128.667,293.985 128.667 L 298.137 128.667 298.255 127.243 C 298.321 126.459,298.331 125.775,298.278 125.722 C 298.042 125.486,297.680 125.875,297.427 126.635 C 296.999 127.924,296.794 128.035,294.799 128.059 C 292.551 128.085,292.667 128.212,292.667 125.740 L 292.667 123.667 293.678 123.667 C 294.988 123.667,295.305 123.848,295.437 124.672 C 295.516 125.170,295.620 125.333,295.855 125.333 C 296.142 125.333,296.167 125.177,296.167 123.333 C 296.167 121.444,296.148 121.333,295.833 121.333 C 295.587 121.333,295.500 121.444,295.500 121.758 C 295.500 122.553,294.802 123.024,293.708 122.967 L 292.750 122.917 292.750 120.917 L 292.750 118.917 293.917 118.869 C 295.931 118.786,296.350 118.943,296.824 119.960 C 297.413 121.226,297.667 121.112,297.667 119.583 L 297.667 118.333 293.750 118.333 C 290.393 118.333,289.833 118.369,289.833 118.581 M306.833 118.565 C 306.833 118.745,307.048 118.864,307.500 118.936 L 308.167 119.043 308.167 123.500 L 308.167 127.957 307.500 128.064 C 307.069 128.133,306.833 128.258,306.833 128.419 C 306.833 128.626,307.193 128.667,309.000 128.667 C 310.741 128.667,311.167 128.621,311.167 128.434 C 311.167 128.166,310.812 128.000,310.236 128.000 L 309.833 128.000 309.833 126.000 L 309.833 124.000 310.375 124.005 C 310.877 124.009,310.969 124.105,311.630 125.304 C 312.023 126.016,312.725 127.063,313.191 127.632 L 314.038 128.667 315.519 128.667 C 316.674 128.667,317.000 128.616,317.000 128.434 C 317.000 128.168,316.646 128.000,316.086 128.000 C 315.587 128.000,314.359 126.765,313.394 125.294 C 312.390 123.763,312.392 123.811,313.314 123.303 C 315.228 122.249,315.317 119.831,313.483 118.750 C 312.699 118.289,306.833 118.126,306.833 118.565 M341.000 118.564 C 341.000 118.805,341.489 118.994,342.125 118.998 L 342.500 119.000 342.500 123.405 C 342.500 128.259,342.599 127.817,341.458 128.071 C 340.210 128.349,340.988 128.667,342.917 128.667 C 344.809 128.667,345.648 128.342,344.417 128.087 C 344.188 128.039,343.813 127.961,343.583 127.913 L 343.167 127.827 343.167 124.070 C 343.167 121.653,343.225 120.350,343.330 120.415 C 343.420 120.471,344.143 121.431,344.935 122.550 C 349.443 128.911,349.383 128.833,349.781 128.833 L 350.167 128.833 350.167 124.003 L 350.167 119.173 350.625 119.073 C 351.411 118.900,351.500 118.851,351.500 118.589 C 351.500 118.375,351.202 118.333,349.667 118.333 C 347.883 118.333,347.034 118.665,348.208 118.903 C 348.415 118.945,348.790 119.023,349.042 119.076 L 349.500 119.173 349.500 122.670 C 349.500 126.571,349.510 126.544,348.583 125.173 C 348.217 124.631,346.984 122.870,345.845 121.260 L 343.773 118.333 342.387 118.333 C 341.317 118.333,341.000 118.386,341.000 118.564 M153.012 119.001 C 155.362 119.653,154.892 122.812,152.421 122.970 L 151.333 123.039 151.333 120.936 L 151.333 118.833 151.875 118.834 C 152.173 118.835,152.685 118.910,153.012 119.001 M312.351 119.346 C 313.448 120.127,313.294 122.252,312.086 122.999 C 311.727 123.220,311.254 123.333,310.689 123.333 L 309.833 123.333 309.833 121.194 C 309.833 120.018,309.890 118.998,309.958 118.928 C 310.179 118.703,311.860 118.996,312.351 119.346 M328.849 122.708 L 329.469 124.333 327.984 124.333 C 327.168 124.333,326.500 124.283,326.500 124.222 C 326.500 124.161,326.813 123.294,327.196 122.296 C 327.991 120.220,327.891 120.195,328.849 122.708 M154.076 123.924 C 156.535 125.091,154.588 128.688,151.825 128.082 L 151.333 127.974 151.333 125.820 L 151.333 123.667 152.433 123.667 C 153.080 123.667,153.757 123.773,154.076 123.924 " stroke="none" fill="#2168a4" fill-rule="evenodd"></path><path id="path1" d="M0.000 80.917 L 0.000 161.833 200.000 161.833 L 400.000 161.833 400.000 80.917 L 400.000 0.000 200.000 0.000 L 0.000 0.000 0.000 80.917 M51.500 47.417 L 51.500 61.833 57.505 61.833 C 63.148 61.833,63.573 61.812,64.547 61.486 C 72.761 58.734,73.028 47.549,64.957 44.280 C 64.185 43.967,63.646 43.916,60.333 43.838 L 56.583 43.750 56.539 38.375 L 56.495 33.000 59.956 33.003 C 64.896 33.008,67.104 33.415,70.254 34.900 C 81.502 40.206,85.351 54.085,78.434 64.400 L 77.663 65.549 78.548 66.483 C 80.824 68.884,82.351 71.789,83.420 75.750 C 85.309 82.749,81.957 91.740,75.704 96.446 C 71.563 99.563,68.129 100.500,60.853 100.500 L 56.495 100.500 56.539 95.125 L 56.583 89.750 61.250 89.659 C 65.222 89.582,66.037 89.522,66.726 89.262 C 74.582 86.295,75.092 75.786,67.554 72.203 L 66.250 71.583 58.875 71.535 L 51.500 71.487 51.500 85.993 L 51.500 100.500 42.250 100.500 L 33.000 100.500 33.000 95.083 L 33.000 89.667 36.583 89.667 L 40.167 89.667 40.167 66.750 L 40.167 43.833 36.583 43.833 L 33.000 43.833 33.000 38.417 L 33.000 33.000 42.250 33.000 L 51.500 33.000 51.500 47.417 M106.167 61.333 L 106.167 89.667 109.667 89.667 L 113.167 89.667 113.167 95.083 L 113.167 100.500 100.331 100.500 L 87.495 100.500 87.539 95.125 L 87.583 89.750 91.208 89.705 L 94.833 89.660 94.833 66.750 L 94.833 43.840 91.208 43.795 L 87.583 43.750 87.539 38.375 L 87.495 33.000 96.831 33.000 L 106.167 33.000 106.167 61.333 M142.167 50.667 L 142.167 56.167 141.693 56.167 C 137.316 56.167,131.238 60.647,128.922 65.580 C 123.785 76.523,129.904 88.498,141.792 90.768 L 142.167 90.840 142.167 96.264 C 142.167 101.351,142.148 101.684,141.875 101.608 C 141.715 101.563,141.058 101.478,140.417 101.419 C 123.567 99.857,112.310 81.203,117.936 64.167 C 121.418 53.621,131.273 45.781,141.792 45.188 L 142.167 45.167 142.167 50.667 M151.417 45.758 C 165.514 49.119,173.981 61.295,172.892 76.641 L 172.783 78.167 157.722 78.167 L 142.662 78.167 142.706 73.375 L 142.750 68.583 152.055 68.540 L 161.359 68.497 161.241 67.959 C 160.045 62.513,153.790 56.926,148.125 56.244 L 147.167 56.128 147.167 50.628 L 147.167 45.128 148.458 45.244 C 149.169 45.309,150.500 45.540,151.417 45.758 M194.833 50.310 L 194.833 55.453 193.958 55.547 C 188.126 56.167,186.553 63.390,191.681 66.003 C 192.572 66.457,194.508 67.043,200.750 68.747 C 208.228 70.790,210.932 72.268,213.814 75.893 C 219.344 82.847,217.777 94.147,210.603 99.040 C 208.030 100.795,203.583 102.167,200.463 102.167 L 200.000 102.167 200.000 96.940 L 200.000 91.713 200.875 91.622 C 207.162 90.962,208.834 83.262,203.284 80.529 C 202.311 80.050,200.561 79.524,192.848 77.394 C 182.353 74.495,178.258 69.824,178.257 60.750 C 178.256 51.111,183.849 45.711,194.375 45.189 L 194.833 45.167 194.833 50.310 M202.994 45.700 C 204.441 46.143,206.038 46.938,207.188 47.787 L 208.126 48.480 208.238 47.490 L 208.350 46.500 212.258 46.500 L 216.167 46.500 216.167 54.333 L 216.167 62.167 211.345 62.167 L 206.524 62.167 206.269 61.292 C 205.509 58.686,203.501 56.746,200.292 55.516 L 199.833 55.340 199.833 50.365 C 199.833 47.628,199.890 45.333,199.958 45.264 C 200.138 45.084,201.727 45.312,202.994 45.700 M253.628 45.338 C 261.152 46.282,267.783 51.978,270.307 59.667 C 271.405 63.011,271.383 62.678,271.456 76.792 L 271.522 89.667 275.011 89.667 L 278.500 89.667 278.500 95.083 L 278.500 100.500 269.338 100.500 L 260.177 100.500 260.128 82.708 C 260.073 62.713,260.149 63.944,258.800 61.233 C 256.840 57.295,252.052 55.235,248.125 56.639 L 247.167 56.982 247.167 51.251 L 247.167 45.520 247.958 45.416 C 248.394 45.359,248.862 45.288,249.000 45.259 C 249.591 45.133,252.368 45.180,253.628 45.338 M289.455 45.730 C 296.348 47.513,301.703 52.612,304.003 59.582 C 305.111 62.940,305.057 62.120,305.121 76.542 L 305.180 89.667 308.757 89.667 L 312.333 89.667 312.333 95.083 L 312.333 100.500 303.083 100.500 L 293.833 100.500 293.833 83.087 C 293.833 63.394,293.875 64.107,292.575 61.417 C 289.452 54.954,280.697 54.399,276.417 60.393 C 275.590 61.550,275.617 61.552,275.246 60.292 C 274.528 57.850,273.213 54.954,271.618 52.299 L 270.545 50.515 270.898 50.199 C 275.583 45.987,283.282 44.132,289.455 45.730 M342.000 45.797 C 351.117 48.139,357.693 54.961,359.494 63.943 C 359.817 65.552,359.833 66.228,359.833 77.648 L 359.833 89.660 363.458 89.705 L 367.083 89.750 367.127 95.125 L 367.171 100.500 357.836 100.500 L 348.500 100.500 348.500 83.351 C 348.500 63.047,348.581 63.928,346.399 60.641 C 342.541 54.833,333.918 53.651,328.716 58.219 L 328.150 58.716 324.497 54.983 L 320.844 51.250 321.630 50.533 C 326.565 46.035,335.155 44.038,342.000 45.797 M242.167 73.500 L 242.167 100.500 232.917 100.500 L 223.667 100.500 223.667 95.083 L 223.667 89.667 227.250 89.667 L 230.833 89.667 230.833 73.583 L 230.833 57.500 227.250 57.500 L 223.667 57.500 223.667 52.000 L 223.667 46.500 232.917 46.500 L 242.167 46.500 242.167 73.500 M343.500 70.750 C 343.500 75.675,343.490 75.833,343.176 75.833 C 342.997 75.833,341.929 75.910,340.801 76.004 C 339.673 76.099,337.174 76.233,335.248 76.304 C 331.786 76.430,331.733 76.438,330.619 76.959 C 325.159 79.514,325.213 88.251,330.703 90.747 C 333.175 91.871,337.581 91.535,341.889 89.894 C 342.699 89.586,343.393 89.333,343.431 89.333 C 343.469 89.333,343.500 91.735,343.500 94.671 L 343.500 100.008 343.125 100.150 C 340.293 101.222,333.489 101.876,330.667 101.348 C 315.326 98.478,310.360 78.743,322.651 69.494 C 326.747 66.412,328.899 65.994,342.208 65.696 L 343.500 65.667 343.500 70.750 M188.676 85.542 C 189.334 88.017,191.454 90.125,194.083 90.919 L 194.750 91.120 194.794 96.390 L 194.838 101.659 194.294 101.556 C 192.133 101.147,189.073 99.910,187.404 98.772 L 186.750 98.326 186.707 98.871 C 186.683 99.171,186.623 99.662,186.574 99.961 L 186.484 100.506 182.617 100.461 L 178.750 100.417 178.707 92.833 C 178.683 88.662,178.699 85.156,178.743 85.042 C 178.804 84.882,179.943 84.833,183.655 84.833 L 188.487 84.833 188.676 85.542 M160.964 89.577 C 163.431 92.045,164.675 93.404,164.614 93.564 C 164.464 93.955,161.885 96.092,160.167 97.250 C 156.531 99.699,151.090 101.565,147.292 101.663 C 147.223 101.665,147.167 99.231,147.167 96.253 L 147.167 90.840 147.625 90.740 C 151.157 89.968,153.289 88.992,155.583 87.095 C 156.408 86.413,157.114 85.850,157.152 85.844 C 157.190 85.838,158.905 87.518,160.964 89.577 M203.792 118.109 L 205.167 118.216 205.167 119.786 C 205.167 121.725,204.726 121.974,204.159 120.358 C 203.633 118.859,202.810 118.412,201.524 118.926 C 199.579 119.705,200.167 121.914,202.474 122.494 C 204.777 123.073,205.667 123.957,205.667 125.667 C 205.667 128.153,203.833 129.259,200.430 128.827 L 198.667 128.603 198.667 126.957 C 198.667 125.071,199.145 124.613,199.578 126.083 C 200.010 127.545,200.721 128.165,201.967 128.166 C 204.541 128.168,204.928 124.991,202.435 124.313 C 199.670 123.562,199.000 122.947,199.000 121.161 C 199.000 120.106,199.371 119.282,200.096 118.729 C 201.029 118.018,201.533 117.933,203.792 118.109 M220.025 118.167 L 220.500 118.167 220.500 119.750 C 220.500 121.710,220.064 122.047,219.599 120.446 C 219.084 118.675,217.211 118.126,216.176 119.443 C 215.136 120.765,216.073 122.086,218.455 122.656 C 223.354 123.830,221.179 129.727,216.165 128.867 C 215.521 128.757,214.770 128.667,214.497 128.667 L 214.000 128.667 214.000 127.000 C 214.000 125.209,214.415 124.613,214.840 125.792 C 215.522 127.681,216.065 128.167,217.495 128.167 C 220.191 128.167,220.249 124.993,217.566 124.252 C 215.340 123.638,214.588 123.019,214.400 121.650 C 214.089 119.384,215.722 117.897,218.317 118.080 C 218.995 118.128,219.764 118.167,220.025 118.167 M365.858 118.167 L 366.333 118.167 366.333 119.750 C 366.333 121.705,365.918 122.023,365.409 120.458 C 364.806 118.607,363.070 118.094,362.003 119.451 C 360.977 120.755,361.903 122.072,364.250 122.648 C 366.043 123.088,366.887 124.057,366.888 125.678 C 366.890 128.035,364.861 129.358,361.998 128.867 C 361.354 128.757,360.604 128.667,360.330 128.667 L 359.833 128.667 359.833 126.988 C 359.833 124.868,360.241 124.673,360.951 126.455 C 361.922 128.886,365.057 128.814,365.294 126.356 C 365.399 125.260,364.853 124.653,363.400 124.252 C 361.208 123.647,360.389 122.987,360.214 121.683 C 359.910 119.414,361.567 117.897,364.150 118.080 C 364.829 118.128,365.597 118.167,365.858 118.167 M42.667 119.667 C 42.667 121.586,42.273 121.794,41.687 120.186 C 41.293 119.105,41.135 119.006,39.792 119.002 L 39.000 119.000 39.000 123.413 L 39.000 127.827 39.375 127.907 C 39.581 127.951,39.899 128.010,40.081 128.037 C 40.264 128.065,40.438 128.218,40.469 128.377 C 40.520 128.641,40.317 128.667,38.179 128.667 C 35.944 128.667,35.833 128.651,35.833 128.333 C 35.833 128.076,35.944 128.000,36.320 128.000 C 37.382 128.000,37.333 128.222,37.333 123.399 L 37.333 119.000 36.511 119.000 C 35.214 119.000,34.942 119.174,34.582 120.233 C 34.038 121.832,33.500 121.605,33.500 119.778 C 33.500 118.007,33.036 118.167,38.194 118.167 L 42.667 118.167 42.667 119.667 M55.135 118.614 C 55.180 118.927,55.097 118.986,54.552 119.031 L 53.917 119.083 53.870 120.958 L 53.822 122.833 56.245 122.833 L 58.667 122.833 58.667 121.003 C 58.667 118.997,58.741 119.138,57.583 118.963 C 57.379 118.932,57.250 118.784,57.250 118.581 C 57.250 118.270,57.382 118.247,59.458 118.203 L 61.667 118.157 61.667 118.568 C 61.667 118.924,61.581 118.987,61.042 119.032 L 60.417 119.083 60.417 123.500 L 60.417 127.917 61.042 127.968 C 61.531 128.009,61.667 128.090,61.667 128.343 C 61.667 128.647,61.532 128.667,59.404 128.667 C 57.345 128.667,57.147 128.641,57.198 128.377 C 57.229 128.218,57.403 128.065,57.585 128.037 C 58.748 127.861,58.667 128.035,58.667 125.747 L 58.667 123.667 56.245 123.667 L 53.823 123.667 53.870 125.792 L 53.917 127.917 54.542 127.968 C 55.031 128.009,55.167 128.090,55.167 128.343 C 55.167 128.647,55.032 128.667,52.917 128.667 C 50.801 128.667,50.667 128.647,50.667 128.343 C 50.667 128.090,50.802 128.009,51.292 127.968 L 51.917 127.917 51.917 123.500 L 51.917 119.083 51.292 119.032 C 50.752 118.987,50.667 118.924,50.667 118.568 L 50.667 118.157 52.875 118.203 C 55.002 118.248,55.085 118.263,55.135 118.614 M78.132 119.542 C 78.192 121.140,77.763 121.393,77.190 120.098 C 76.761 119.127,76.470 119.000,74.678 119.000 L 73.167 119.000 73.167 120.917 L 73.167 122.833 74.135 122.833 C 75.262 122.833,75.591 122.635,75.792 121.833 C 75.896 121.418,76.031 121.250,76.261 121.250 C 76.561 121.250,76.587 121.401,76.630 123.387 C 76.677 125.518,76.676 125.524,76.303 125.471 C 76.027 125.431,75.898 125.265,75.811 124.837 C 75.641 124.000,75.143 123.667,74.060 123.667 L 73.157 123.667 73.203 125.792 L 73.250 127.917 75.117 127.917 C 77.232 127.917,77.193 127.937,77.750 126.566 C 78.116 125.666,78.786 125.138,78.733 125.792 C 78.724 125.906,78.705 126.600,78.692 127.333 L 78.667 128.667 74.321 128.667 C 70.283 128.667,69.980 128.646,70.031 128.377 C 70.062 128.218,70.236 128.065,70.419 128.037 C 70.601 128.010,70.919 127.951,71.125 127.907 L 71.500 127.827 71.500 123.515 C 71.500 118.837,71.533 119.000,70.580 119.000 C 70.131 119.000,69.927 118.764,70.064 118.406 C 70.144 118.198,70.760 118.167,74.121 118.205 L 78.083 118.250 78.132 119.542 M102.500 118.573 C 102.500 118.923,102.412 118.987,101.875 119.032 L 101.250 119.083 101.206 123.542 L 101.161 128.000 102.539 127.983 C 104.613 127.958,104.672 127.927,105.240 126.535 C 105.594 125.668,105.815 125.333,106.032 125.333 C 106.374 125.333,106.388 125.475,106.226 127.392 L 106.118 128.667 102.059 128.667 C 98.153 128.667,98.000 128.654,98.000 128.343 C 98.000 128.090,98.135 128.009,98.625 127.968 L 99.250 127.917 99.250 123.500 L 99.250 119.083 98.625 119.032 C 98.088 118.987,98.000 118.923,98.000 118.573 L 98.000 118.167 100.250 118.167 L 102.500 118.167 102.500 118.573 M118.750 118.583 C 118.750 118.847,118.611 118.934,118.083 119.000 L 117.417 119.083 117.372 123.454 L 117.328 127.826 117.706 127.906 C 117.913 127.951,118.232 128.010,118.415 128.037 C 118.597 128.065,118.771 128.218,118.802 128.377 C 118.853 128.641,118.650 128.667,116.512 128.667 C 114.278 128.667,114.167 128.651,114.167 128.333 C 114.167 128.076,114.278 128.000,114.653 128.000 C 115.714 128.000,115.667 128.211,115.667 123.500 C 115.667 118.789,115.714 119.000,114.653 119.000 C 114.180 119.000,113.969 118.586,114.282 118.273 C 114.601 117.955,118.750 118.243,118.750 118.583 M130.888 118.625 C 131.015 118.877,131.633 120.602,132.262 122.458 C 133.411 125.850,133.556 126.149,133.713 125.458 C 133.760 125.252,134.150 124.108,134.579 122.917 C 135.009 121.725,135.561 120.188,135.805 119.500 L 136.250 118.250 138.083 118.250 C 139.801 118.250,139.917 118.271,139.917 118.581 C 139.917 118.784,139.788 118.932,139.583 118.963 C 139.400 118.990,139.081 119.049,138.875 119.093 L 138.500 119.173 138.500 123.500 L 138.500 127.827 138.875 127.907 C 139.081 127.951,139.399 128.010,139.581 128.037 C 139.764 128.065,139.938 128.218,139.969 128.377 C 140.020 128.641,139.817 128.667,137.667 128.667 C 135.519 128.667,135.314 128.641,135.365 128.378 C 135.401 128.189,135.637 128.053,136.045 127.987 C 136.389 127.931,136.708 127.847,136.755 127.801 C 136.801 127.754,136.819 125.785,136.795 123.425 L 136.750 119.134 136.304 120.442 C 136.058 121.161,135.622 122.388,135.334 123.167 C 135.047 123.946,134.705 124.883,134.575 125.250 C 132.934 129.877,133.082 129.917,131.172 124.333 C 130.372 121.996,129.675 119.971,129.622 119.833 C 129.569 119.696,129.520 121.426,129.513 123.679 L 129.500 127.775 130.123 127.929 C 131.582 128.290,131.015 128.667,129.012 128.667 C 127.306 128.667,127.167 128.643,127.167 128.348 C 127.167 128.106,127.327 128.002,127.836 127.916 L 128.505 127.803 128.461 123.443 L 128.417 119.083 127.792 119.032 C 127.254 118.987,127.167 118.923,127.167 118.573 C 127.167 117.895,130.545 117.942,130.888 118.625 M154.795 118.574 C 156.655 119.353,156.791 121.677,155.034 122.688 L 154.370 123.070 155.130 123.327 C 157.250 124.043,157.565 126.847,155.667 128.103 C 154.391 128.947,148.333 129.124,148.333 128.317 C 148.333 128.093,148.452 128.000,148.736 128.000 C 149.701 128.000,149.667 128.167,149.667 123.500 C 149.667 118.833,149.701 119.000,148.736 119.000 C 148.413 119.000,148.333 118.914,148.333 118.564 L 148.333 118.129 151.208 118.203 C 153.468 118.261,154.236 118.340,154.795 118.574 M169.833 118.583 C 169.833 118.942,169.758 119.000,169.292 119.003 C 168.299 119.007,168.324 118.886,168.372 123.595 L 168.417 127.917 169.700 127.965 C 171.791 128.044,172.000 127.939,172.562 126.532 C 172.999 125.436,173.331 125.092,173.573 125.483 C 173.624 125.565,173.617 126.315,173.558 127.150 L 173.450 128.667 169.392 128.667 C 165.444 128.667,165.333 128.658,165.333 128.333 C 165.333 128.076,165.444 128.000,165.820 128.000 C 166.881 128.000,166.833 128.211,166.833 123.500 C 166.833 118.789,166.881 119.000,165.820 119.000 C 165.412 119.000,165.333 118.933,165.333 118.583 L 165.333 118.167 167.583 118.167 L 169.833 118.167 169.833 118.583 M189.632 119.542 C 189.694 121.185,189.253 121.400,188.658 120.016 C 188.244 119.056,188.119 119.005,186.125 119.002 L 184.667 119.000 184.667 120.917 L 184.667 122.833 185.594 122.833 C 186.705 122.833,187.167 122.621,187.167 122.109 C 187.167 121.567,187.559 121.090,187.898 121.220 C 188.382 121.405,188.219 125.397,187.725 125.468 C 187.422 125.511,187.348 125.412,187.251 124.842 C 187.103 123.965,186.669 123.667,185.541 123.667 L 184.657 123.667 184.703 125.792 L 184.750 127.917 186.202 127.965 C 188.428 128.038,188.662 127.936,189.196 126.656 C 189.875 125.029,190.230 125.150,190.181 126.993 C 190.160 127.768,190.107 128.462,190.062 128.535 C 189.871 128.843,181.471 128.688,181.531 128.377 C 181.562 128.218,181.736 128.065,181.919 128.037 C 182.101 128.010,182.419 127.951,182.625 127.907 L 183.000 127.827 183.000 123.515 C 183.000 118.837,183.033 119.000,182.080 119.000 C 181.631 119.000,181.427 118.764,181.564 118.406 C 181.644 118.198,182.260 118.167,185.621 118.205 L 189.583 118.250 189.632 119.542 M242.417 118.583 C 242.417 118.830,242.287 118.931,241.917 118.971 C 241.093 119.061,241.097 119.207,241.994 121.609 C 243.461 125.536,243.726 126.174,243.839 126.043 C 244.147 125.686,246.333 119.872,246.333 119.411 C 246.333 119.303,246.015 119.147,245.625 119.065 C 245.078 118.949,244.917 118.839,244.917 118.583 C 244.917 118.031,248.725 118.073,248.803 118.625 C 248.838 118.873,248.771 119.000,248.603 119.000 C 247.619 119.000,247.573 119.082,245.113 125.250 C 243.270 129.873,243.311 129.861,241.920 126.167 C 241.223 124.317,240.300 121.900,239.659 120.250 C 239.258 119.218,239.151 119.077,238.728 119.029 C 238.137 118.961,237.925 118.770,238.058 118.423 C 238.232 117.968,242.417 118.122,242.417 118.583 M264.250 119.500 C 264.250 121.109,263.760 121.396,263.258 120.081 C 262.895 119.131,262.590 119.000,260.739 119.000 L 259.333 119.000 259.333 120.917 L 259.333 122.833 260.329 122.833 C 261.411 122.833,261.665 122.636,261.903 121.614 C 261.978 121.289,262.100 121.161,262.298 121.199 C 262.773 121.290,262.819 125.500,262.345 125.500 C 262.094 125.500,261.967 125.326,261.828 124.792 C 261.587 123.871,261.294 123.667,260.213 123.667 L 259.323 123.667 259.370 125.792 L 259.417 127.917 261.183 127.917 C 263.254 127.917,263.349 127.866,263.853 126.481 C 264.547 124.581,265.025 125.299,264.725 127.792 L 264.620 128.667 260.393 128.667 C 256.322 128.667,256.167 128.655,256.167 128.343 C 256.167 128.090,256.302 128.009,256.792 127.968 L 257.417 127.917 257.417 123.500 L 257.417 119.083 256.792 119.032 C 256.253 118.987,256.167 118.923,256.167 118.570 L 256.167 118.161 260.208 118.205 L 264.250 118.250 264.250 119.500 M281.798 119.708 C 281.861 121.605,281.292 121.900,280.769 120.242 C 280.437 119.186,280.144 119.000,278.822 119.000 L 278.000 119.000 278.000 123.399 C 278.000 128.222,277.951 128.000,279.014 128.000 C 279.389 128.000,279.500 128.076,279.500 128.333 C 279.500 128.651,279.389 128.667,277.154 128.667 C 275.016 128.667,274.814 128.641,274.865 128.377 C 274.895 128.218,275.070 128.065,275.252 128.037 C 275.434 128.010,275.752 127.951,275.958 127.907 L 276.333 127.827 276.333 123.413 L 276.333 119.000 275.542 119.002 C 274.198 119.006,274.041 119.105,273.646 120.186 C 273.047 121.830,272.500 121.636,272.500 119.778 C 272.500 118.003,272.042 118.155,277.239 118.206 L 281.750 118.250 281.798 119.708 M297.799 119.542 C 297.858 121.110,297.256 121.512,296.855 120.173 C 296.557 119.177,296.183 119.000,294.380 119.000 L 292.833 119.000 292.833 120.917 L 292.833 122.833 293.792 122.831 C 294.960 122.828,295.093 122.750,295.367 121.914 C 295.862 120.404,296.167 120.941,296.167 123.321 C 296.167 125.356,296.146 125.500,295.848 125.500 C 295.606 125.500,295.502 125.339,295.417 124.832 C 295.270 123.966,294.831 123.667,293.708 123.667 L 292.823 123.667 292.870 125.792 L 292.917 127.917 294.369 127.965 C 296.592 128.038,296.815 127.940,297.337 126.658 C 297.987 125.060,298.402 125.131,298.354 126.833 C 298.296 128.861,298.767 128.667,293.905 128.667 C 289.778 128.667,289.667 128.658,289.667 128.333 C 289.667 128.076,289.778 128.000,290.153 128.000 C 291.214 128.000,291.167 128.211,291.167 123.500 C 291.167 118.789,291.214 119.000,290.153 119.000 C 289.681 119.000,289.469 118.587,289.781 118.275 C 289.843 118.212,291.662 118.181,293.822 118.205 L 297.750 118.250 297.799 119.542 M313.371 118.626 C 314.692 119.216,315.201 120.632,314.604 122.059 C 314.367 122.628,313.251 123.667,312.879 123.667 C 312.508 123.667,312.646 124.056,313.429 125.224 C 314.733 127.167,315.645 128.000,316.469 128.000 C 317.056 128.000,317.167 128.053,317.167 128.333 C 317.167 128.643,317.056 128.667,315.596 128.667 L 314.026 128.667 313.250 127.792 C 312.617 127.077,311.141 124.828,310.961 124.304 C 310.937 124.232,310.673 124.126,310.375 124.066 L 309.833 123.958 309.833 125.878 C 309.833 127.942,309.859 128.000,310.764 128.000 C 311.056 128.000,311.167 128.092,311.167 128.333 C 311.167 128.650,311.056 128.667,308.904 128.667 C 306.840 128.667,306.647 128.641,306.698 128.375 C 306.736 128.174,306.959 128.058,307.418 128.000 L 308.083 127.917 308.128 123.595 C 308.176 118.946,308.187 119.008,307.302 119.003 C 306.752 118.999,306.564 118.741,306.856 118.389 C 307.212 117.960,312.293 118.145,313.371 118.626 M329.470 119.958 C 332.408 127.742,332.526 128.000,333.177 128.000 C 333.556 128.000,333.667 128.076,333.667 128.333 C 333.667 128.650,333.556 128.667,331.500 128.667 C 329.444 128.667,329.333 128.650,329.333 128.333 C 329.333 128.065,329.444 128.000,329.907 128.000 C 330.695 128.000,330.715 127.897,330.194 126.487 L 329.738 125.250 327.939 125.250 L 326.141 125.250 325.821 126.160 C 325.326 127.564,325.374 127.809,326.167 127.936 C 326.669 128.016,326.833 128.119,326.833 128.355 C 326.833 128.641,326.679 128.667,324.917 128.667 C 323.111 128.667,323.000 128.647,323.000 128.333 C 323.000 128.114,323.111 128.000,323.324 128.000 C 323.931 128.000,324.464 127.269,325.145 125.500 C 325.516 124.537,326.260 122.625,326.798 121.250 C 327.336 119.875,327.824 118.619,327.883 118.458 C 328.205 117.579,328.775 118.118,329.470 119.958 M343.879 118.458 C 344.024 118.619,345.310 120.396,346.738 122.407 L 349.333 126.065 349.333 122.635 L 349.333 119.205 348.583 119.092 C 347.927 118.994,347.833 118.928,347.833 118.568 L 347.833 118.156 349.708 118.203 C 351.468 118.247,351.586 118.272,351.633 118.600 C 351.675 118.890,351.562 118.975,350.967 119.100 L 350.250 119.251 350.206 124.053 L 350.162 128.855 349.708 128.802 C 349.249 128.749,349.136 128.602,344.208 121.653 L 343.333 120.419 343.333 124.107 L 343.333 127.795 344.083 127.908 C 344.676 127.997,344.833 128.088,344.833 128.344 C 344.833 128.645,344.702 128.667,342.917 128.667 C 341.140 128.667,341.000 128.643,341.000 128.348 C 341.000 128.106,341.161 128.002,341.669 127.916 L 342.339 127.803 342.294 123.443 L 342.250 119.083 341.542 119.032 C 340.861 118.983,340.586 118.636,340.944 118.278 C 341.208 118.014,343.611 118.162,343.879 118.458 M151.333 121.000 L 151.333 123.000 152.005 123.000 C 153.841 123.000,154.815 121.823,154.295 120.231 C 154.035 119.435,153.269 119.001,152.125 119.000 L 151.333 119.000 151.333 121.000 M309.870 121.102 L 309.917 123.250 310.525 123.301 C 311.947 123.419,312.998 122.426,312.999 120.961 C 313.000 119.716,312.407 119.161,310.948 119.044 L 309.823 118.954 309.870 121.102 M327.225 122.459 L 326.533 124.250 327.871 124.299 C 328.606 124.326,329.240 124.315,329.280 124.275 C 329.339 124.217,328.020 120.665,327.941 120.667 C 327.927 120.668,327.605 121.474,327.225 122.459 M151.333 125.833 L 151.333 128.000 152.339 128.000 C 154.164 128.000,155.000 127.319,155.000 125.833 C 155.000 124.392,154.079 123.667,152.247 123.667 L 151.333 123.667 151.333 125.833 " stroke="none" fill="#fbfbfb" fill-rule="evenodd"></path><path id="path2" d="M87.667 38.333 L 87.667 43.667 91.250 43.667 L 94.833 43.667 94.833 66.750 L 94.833 89.833 91.250 89.833 L 87.667 89.833 87.667 95.167 L 87.667 100.500 100.417 100.500 L 113.167 100.500 113.167 95.167 L 113.167 89.833 109.583 89.833 L 106.000 89.833 106.000 61.417 L 106.000 33.000 96.833 33.000 L 87.667 33.000 87.667 38.333 M248.926 45.361 C 247.101 45.569,247.244 45.048,247.296 51.300 L 247.342 56.796 248.353 56.481 C 252.001 55.346,256.234 56.945,258.319 60.247 C 260.224 63.263,260.167 62.557,260.167 83.015 L 260.167 100.500 269.333 100.500 L 278.500 100.500 278.500 95.083 L 278.500 89.667 274.926 89.667 L 271.352 89.667 271.292 76.542 L 271.232 63.417 270.792 61.750 C 268.262 52.172,261.722 46.243,252.691 45.339 C 250.780 45.148,250.795 45.148,248.926 45.361 M178.833 92.664 L 178.833 100.500 182.667 100.500 L 186.500 100.500 186.500 99.510 C 186.500 98.273,186.649 98.181,187.631 98.809 C 189.455 99.977,192.275 101.107,194.127 101.413 L 194.838 101.530 194.794 96.419 L 194.750 91.309 193.561 90.846 C 191.083 89.882,189.546 88.345,188.733 86.018 L 188.348 84.917 183.591 84.872 L 178.833 84.828 178.833 92.664 M156.178 86.740 C 153.714 88.929,149.623 90.833,147.386 90.833 C 147.357 90.833,147.333 93.233,147.333 96.167 L 147.333 101.500 147.792 101.499 C 152.405 101.493,159.072 98.546,163.456 94.575 L 164.698 93.450 160.975 89.725 C 158.928 87.676,157.198 86.000,157.132 86.000 C 157.065 86.000,156.636 86.333,156.178 86.740 " stroke="none" fill="#e40414" fill-rule="evenodd"></path><path id="path3" d="M56.580 38.333 L 56.583 43.750 59.792 43.756 L 63.000 43.761 59.836 43.710 L 56.671 43.659 56.624 38.288 L 56.576 32.917 56.580 38.333 M74.667 37.713 C 74.667 37.738,75.248 38.319,75.958 39.004 L 77.250 40.250 76.004 38.958 C 74.847 37.759,74.667 37.591,74.667 37.713 M36.542 43.790 L 40.167 43.840 40.167 66.750 L 40.167 89.660 36.542 89.710 L 32.917 89.760 36.583 89.755 L 40.250 89.750 40.250 66.750 L 40.250 43.750 36.583 43.745 L 32.917 43.740 36.542 43.790 M140.345 45.348 C 120.869 47.869,110.245 70.478,120.303 88.000 C 124.543 95.387,132.482 100.683,140.417 101.419 C 141.058 101.478,141.715 101.563,141.875 101.608 C 142.148 101.684,142.167 101.351,142.167 96.264 L 142.167 90.840 141.792 90.768 C 129.904 88.498,123.785 76.523,128.922 65.580 C 131.238 60.647,137.316 56.167,141.693 56.167 L 142.167 56.167 142.167 50.667 L 142.167 45.167 141.792 45.188 C 141.585 45.199,140.934 45.271,140.345 45.348 M147.241 50.667 C 147.241 53.737,147.264 54.994,147.291 53.458 C 147.319 51.923,147.319 49.410,147.291 47.875 C 147.264 46.340,147.241 47.596,147.241 50.667 M192.572 45.343 C 183.326 46.240,178.256 51.697,178.257 60.750 C 178.258 69.824,182.353 74.495,192.848 77.394 C 200.561 79.524,202.311 80.050,203.284 80.529 C 208.834 83.262,207.162 90.962,200.875 91.622 L 200.000 91.713 200.000 96.940 L 200.000 102.167 200.463 102.167 C 203.583 102.167,208.030 100.795,210.603 99.040 C 217.777 94.147,219.344 82.847,213.814 75.893 C 210.932 72.268,208.228 70.790,200.750 68.747 C 194.508 67.043,192.572 66.457,191.681 66.003 C 186.553 63.390,188.126 56.167,193.958 55.547 L 194.833 55.453 194.833 50.310 L 194.833 45.167 194.375 45.189 C 194.123 45.202,193.312 45.271,192.572 45.343 M282.627 45.285 C 282.834 45.324,283.134 45.323,283.294 45.281 C 283.453 45.239,283.283 45.207,282.917 45.209 C 282.550 45.211,282.420 45.245,282.627 45.285 M285.792 45.284 C 285.998 45.324,286.335 45.324,286.542 45.284 C 286.748 45.245,286.579 45.212,286.167 45.212 C 285.754 45.212,285.585 45.245,285.792 45.284 M334.458 45.284 C 334.665 45.324,335.002 45.324,335.208 45.284 C 335.415 45.245,335.246 45.212,334.833 45.212 C 334.421 45.212,334.252 45.245,334.458 45.284 M337.792 45.284 C 337.998 45.324,338.335 45.324,338.542 45.284 C 338.748 45.245,338.579 45.212,338.167 45.212 C 337.754 45.212,337.585 45.245,337.792 45.284 M199.869 50.282 C 199.849 53.049,199.890 55.349,199.958 55.391 C 200.027 55.434,200.064 53.957,200.041 52.109 C 199.961 45.842,199.904 45.235,199.869 50.282 M216.077 54.333 C 216.077 58.688,216.099 60.469,216.125 58.292 C 216.151 56.115,216.151 52.552,216.125 50.375 C 216.099 48.198,216.077 49.979,216.077 54.333 M242.081 73.500 C 242.081 88.396,242.101 94.490,242.125 87.042 C 242.149 79.594,242.149 67.406,242.125 59.958 C 242.101 52.510,242.081 58.604,242.081 73.500 M81.705 51.000 C 81.705 51.321,81.740 51.452,81.782 51.292 C 81.823 51.131,81.823 50.869,81.782 50.708 C 81.740 50.548,81.705 50.679,81.705 51.000 M322.083 52.500 C 322.812 53.233,323.446 53.833,323.492 53.833 C 323.538 53.833,322.979 53.233,322.250 52.500 C 321.521 51.767,320.887 51.167,320.841 51.167 C 320.795 51.167,321.354 51.767,322.083 52.500 M70.890 52.917 C 70.891 53.650,70.920 53.929,70.956 53.537 C 70.991 53.145,70.990 52.545,70.954 52.204 C 70.919 51.863,70.890 52.183,70.890 52.917 M81.705 55.500 C 81.705 55.821,81.740 55.952,81.782 55.792 C 81.823 55.631,81.823 55.369,81.782 55.208 C 81.740 55.048,81.705 55.179,81.705 55.500 M283.208 56.282 C 283.369 56.323,283.631 56.323,283.792 56.282 C 283.952 56.240,283.821 56.205,283.500 56.205 C 283.179 56.205,283.048 56.240,283.208 56.282 M285.208 56.282 C 285.369 56.323,285.631 56.323,285.792 56.282 C 285.952 56.240,285.821 56.205,285.500 56.205 C 285.179 56.205,285.048 56.240,285.208 56.282 M327.374 57.916 L 328.164 58.743 328.540 58.336 L 328.917 57.929 328.537 58.245 C 328.158 58.560,328.157 58.560,327.370 57.824 L 326.583 57.088 327.374 57.916 M225.366 57.458 C 226.346 57.487,227.996 57.487,229.032 57.458 C 230.069 57.429,229.267 57.404,227.250 57.404 C 225.233 57.404,224.385 57.428,225.366 57.458 M344.667 58.552 C 344.667 58.581,344.910 58.825,345.208 59.094 L 345.750 59.583 345.260 59.042 C 344.804 58.537,344.667 58.423,344.667 58.552 M54.375 61.958 C 56.002 61.985,58.665 61.985,60.292 61.958 C 61.919 61.931,60.587 61.908,57.333 61.908 C 54.079 61.908,52.748 61.931,54.375 61.958 M305.039 64.833 C 305.039 65.154,305.073 65.285,305.115 65.125 C 305.157 64.965,305.157 64.702,305.115 64.542 C 305.073 64.381,305.039 64.512,305.039 64.833 M359.709 65.917 C 359.711 66.283,359.745 66.414,359.785 66.206 C 359.824 65.999,359.823 65.699,359.781 65.540 C 359.739 65.380,359.707 65.550,359.709 65.917 M336.667 65.860 C 327.724 66.144,324.393 67.297,320.484 71.457 C 310.836 81.728,316.625 98.721,330.667 101.348 C 333.489 101.876,340.293 101.222,343.125 100.150 L 343.500 100.008 343.500 94.671 C 343.500 91.735,343.469 89.333,343.431 89.333 C 343.393 89.333,342.699 89.586,341.889 89.894 C 337.581 91.535,333.175 91.871,330.703 90.747 C 325.213 88.251,325.159 79.514,330.619 76.959 C 331.733 76.438,331.786 76.430,335.248 76.304 C 337.174 76.233,339.673 76.099,340.801 76.004 C 341.929 75.910,342.997 75.833,343.176 75.833 C 343.490 75.833,343.500 75.675,343.500 70.750 L 343.500 65.667 342.208 65.696 C 341.498 65.712,339.004 65.785,336.667 65.860 M293.914 83.500 C 293.914 92.896,293.934 96.740,293.958 92.042 C 293.983 87.344,293.983 79.656,293.958 74.958 C 293.934 70.260,293.914 74.104,293.914 83.500 M348.580 83.667 C 348.580 92.971,348.600 96.777,348.625 92.125 C 348.650 87.473,348.650 79.860,348.625 75.208 C 348.600 70.556,348.580 74.362,348.580 83.667 M152.083 68.500 L 142.750 68.588 152.125 68.627 C 158.290 68.653,161.500 68.610,161.500 68.500 C 161.500 68.408,161.481 68.351,161.458 68.373 C 161.435 68.395,157.217 68.452,152.083 68.500 M172.872 71.500 C 172.872 71.821,172.906 71.952,172.948 71.792 C 172.990 71.631,172.990 71.369,172.948 71.208 C 172.906 71.048,172.872 71.179,172.872 71.500 M54.970 71.458 C 56.924 71.485,60.074 71.485,61.970 71.458 C 63.865 71.431,62.267 71.410,58.417 71.410 C 54.567 71.410,53.015 71.432,54.970 71.458 M172.875 75.583 C 172.877 75.950,172.911 76.080,172.951 75.873 C 172.991 75.666,172.990 75.366,172.948 75.206 C 172.906 75.047,172.874 75.217,172.875 75.583 M83.705 78.167 C 83.705 78.487,83.740 78.619,83.782 78.458 C 83.823 78.298,83.823 78.035,83.782 77.875 C 83.740 77.715,83.705 77.846,83.705 78.167 M83.705 82.000 C 83.705 82.321,83.740 82.452,83.782 82.292 C 83.823 82.131,83.823 81.869,83.782 81.708 C 83.740 81.548,83.705 81.679,83.705 82.000 M70.240 87.042 L 69.750 87.583 70.292 87.094 C 70.797 86.638,70.910 86.500,70.781 86.500 C 70.752 86.500,70.509 86.744,70.240 87.042 M56.576 89.877 C 56.531 89.992,56.516 92.448,56.542 95.335 L 56.588 100.583 56.627 95.211 L 56.667 89.839 60.875 89.792 L 65.083 89.744 60.870 89.705 C 57.607 89.675,56.638 89.714,56.576 89.877 M363.373 89.790 L 366.995 89.840 367.043 95.212 L 367.090 100.583 367.087 95.167 L 367.083 89.750 363.417 89.745 L 359.750 89.740 363.373 89.790 M201.961 118.121 C 202.261 118.158,202.711 118.157,202.961 118.119 C 203.212 118.081,202.967 118.051,202.417 118.052 C 201.867 118.053,201.662 118.084,201.961 118.121 M217.375 118.119 C 217.627 118.158,218.040 118.158,218.292 118.119 C 218.544 118.081,218.338 118.050,217.833 118.050 C 217.329 118.050,217.123 118.081,217.375 118.119 M363.208 118.119 C 363.460 118.158,363.873 118.158,364.125 118.119 C 364.377 118.081,364.171 118.050,363.667 118.050 C 363.162 118.050,362.956 118.081,363.208 118.119 M33.571 118.390 C 33.524 118.512,33.511 119.206,33.542 119.931 L 33.600 121.250 33.633 119.794 L 33.667 118.339 38.208 118.292 L 42.750 118.244 38.203 118.206 C 34.532 118.174,33.640 118.210,33.571 118.390 M52.833 118.289 C 54.901 118.341,55.754 118.612,54.708 118.885 C 54.495 118.941,54.521 118.967,54.803 118.981 C 55.113 118.996,55.179 118.926,55.137 118.625 C 55.084 118.258,55.036 118.250,52.875 118.242 L 50.666 118.235 52.833 118.289 M57.230 118.409 C 57.104 118.737,57.293 119.004,57.635 118.981 C 57.889 118.963,57.888 118.954,57.625 118.885 C 56.569 118.609,57.435 118.341,59.542 118.291 L 61.750 118.239 59.536 118.203 C 57.731 118.173,57.306 118.211,57.230 118.409 M70.064 118.406 C 69.937 118.737,70.125 119.004,70.468 118.981 C 70.722 118.963,70.721 118.954,70.458 118.885 C 70.298 118.843,70.167 118.702,70.167 118.571 C 70.167 118.372,70.801 118.333,74.076 118.333 L 77.986 118.333 78.045 119.542 L 78.104 120.750 78.094 119.500 L 78.083 118.250 74.121 118.205 C 70.760 118.167,70.144 118.198,70.064 118.406 M99.034 118.290 C 99.649 118.322,100.699 118.322,101.368 118.291 C 102.036 118.259,101.533 118.233,100.250 118.232 C 98.967 118.232,98.420 118.258,99.034 118.290 M114.282 118.273 C 114.008 118.548,114.173 119.000,114.542 118.981 C 114.824 118.966,114.844 118.942,114.625 118.885 C 114.465 118.843,114.333 118.702,114.333 118.571 C 114.333 118.377,114.735 118.333,116.500 118.333 C 118.541 118.333,119.384 118.568,118.458 118.879 C 118.339 118.919,118.356 118.941,118.500 118.930 C 118.638 118.920,118.750 118.763,118.750 118.581 C 118.750 118.242,114.599 117.956,114.282 118.273 M128.048 118.290 C 128.578 118.323,129.403 118.323,129.881 118.289 C 130.359 118.256,129.925 118.229,128.917 118.229 C 127.908 118.229,127.517 118.257,128.048 118.290 M136.279 118.286 C 136.234 118.358,137.016 118.393,138.015 118.365 C 139.538 118.321,139.833 118.353,139.833 118.561 C 139.833 118.697,139.719 118.844,139.580 118.887 C 139.403 118.942,139.415 118.958,139.622 118.939 C 139.796 118.923,139.917 118.776,139.917 118.581 C 139.917 118.235,136.483 117.957,136.279 118.286 M149.542 118.291 C 150.252 118.322,151.415 118.322,152.125 118.291 C 152.835 118.259,152.254 118.234,150.833 118.234 C 149.412 118.234,148.831 118.259,149.542 118.291 M166.368 118.290 C 166.982 118.322,168.032 118.322,168.701 118.291 C 169.370 118.259,168.867 118.233,167.583 118.232 C 166.300 118.232,165.753 118.258,166.368 118.290 M181.563 118.409 C 181.437 118.737,181.626 119.004,181.968 118.981 C 182.222 118.963,182.221 118.954,181.958 118.885 C 181.798 118.843,181.667 118.703,181.667 118.574 C 181.667 118.380,182.354 118.331,185.625 118.292 L 189.583 118.244 185.620 118.205 C 182.284 118.173,181.642 118.205,181.563 118.409 M205.000 119.667 C 205.000 121.091,204.767 121.648,204.443 120.996 C 204.396 120.902,204.377 120.921,204.401 121.037 C 204.424 121.154,204.606 121.274,204.805 121.303 C 205.155 121.355,205.167 121.304,205.167 119.762 C 205.167 118.884,205.129 118.167,205.083 118.167 C 205.037 118.167,205.000 118.842,205.000 119.667 M219.708 118.282 C 219.869 118.323,220.131 118.323,220.292 118.282 C 220.452 118.240,220.321 118.205,220.000 118.205 C 219.679 118.205,219.548 118.240,219.708 118.282 M238.065 118.404 C 237.937 118.737,238.124 119.004,238.468 118.981 C 238.722 118.963,238.721 118.954,238.458 118.885 C 238.298 118.843,238.167 118.702,238.167 118.571 C 238.167 118.378,238.557 118.333,240.250 118.333 C 242.242 118.333,242.899 118.525,242.162 118.890 C 242.069 118.937,242.087 118.956,242.204 118.932 C 242.321 118.908,242.417 118.745,242.417 118.569 C 242.417 118.137,238.229 117.977,238.065 118.404 M244.897 118.409 C 244.783 118.705,244.950 119.005,245.218 118.987 C 245.361 118.977,245.359 118.950,245.208 118.890 C 244.434 118.577,245.090 118.342,246.875 118.291 L 248.750 118.238 246.870 118.202 C 245.356 118.174,244.971 118.214,244.897 118.409 M260.159 118.290 L 264.152 118.339 264.212 119.461 L 264.272 120.583 264.261 119.417 L 264.250 118.250 260.208 118.245 L 256.166 118.241 260.159 118.290 M272.572 118.387 C 272.524 118.511,272.511 119.206,272.542 119.931 L 272.600 121.250 272.633 119.792 L 272.667 118.333 277.160 118.333 L 281.654 118.333 281.713 119.792 L 281.772 121.250 281.761 119.750 L 281.750 118.250 277.204 118.206 C 273.503 118.170,272.642 118.203,272.572 118.387 M289.781 118.275 C 289.507 118.548,289.674 119.000,290.042 118.981 C 290.324 118.966,290.344 118.942,290.125 118.885 C 289.965 118.843,289.833 118.702,289.833 118.571 C 289.833 118.372,290.468 118.333,293.743 118.333 L 297.653 118.333 297.712 119.542 L 297.771 120.750 297.761 119.500 L 297.750 118.250 293.822 118.205 C 291.662 118.181,289.843 118.212,289.781 118.275 M308.125 118.290 C 308.790 118.322,309.877 118.322,310.542 118.290 C 311.206 118.259,310.662 118.233,309.333 118.233 C 308.004 118.233,307.460 118.259,308.125 118.290 M340.944 118.278 C 340.674 118.549,340.843 119.000,341.208 118.981 C 341.491 118.966,341.511 118.942,341.292 118.885 C 340.458 118.667,341.045 118.345,342.375 118.291 L 343.750 118.235 342.403 118.201 C 341.662 118.182,341.006 118.217,340.944 118.278 M349.726 118.289 C 351.430 118.341,351.531 118.364,351.450 118.672 C 351.403 118.853,351.438 119.000,351.527 119.000 C 351.617 119.000,351.666 118.831,351.637 118.625 C 351.585 118.263,351.521 118.250,349.750 118.242 L 347.917 118.234 349.726 118.289 M365.542 118.282 C 365.702 118.323,365.965 118.323,366.125 118.282 C 366.285 118.240,366.154 118.205,365.833 118.205 C 365.512 118.205,365.381 118.240,365.542 118.282 M36.211 118.953 C 36.464 118.991,36.839 118.990,37.044 118.951 C 37.249 118.911,37.042 118.880,36.583 118.881 C 36.125 118.882,35.957 118.915,36.211 118.953 M39.292 118.951 C 39.498 118.991,39.835 118.991,40.042 118.951 C 40.248 118.911,40.079 118.879,39.667 118.879 C 39.254 118.879,39.085 118.911,39.292 118.951 M73.792 118.955 C 74.181 118.990,74.819 118.990,75.208 118.955 C 75.598 118.920,75.279 118.892,74.500 118.892 C 73.721 118.892,73.402 118.920,73.792 118.955 M151.625 118.951 C 151.831 118.991,152.169 118.991,152.375 118.951 C 152.581 118.911,152.412 118.879,152.000 118.879 C 151.587 118.879,151.419 118.911,151.625 118.951 M185.292 118.955 C 185.681 118.990,186.319 118.990,186.708 118.955 C 187.098 118.920,186.779 118.892,186.000 118.892 C 185.221 118.892,184.902 118.920,185.292 118.955 M259.167 120.917 L 259.167 123.000 260.208 122.968 L 261.250 122.937 260.292 122.877 L 259.333 122.817 259.333 120.915 L 259.333 119.013 260.708 118.957 L 262.083 118.901 260.625 118.867 L 259.167 118.833 259.167 120.917 M275.665 118.952 L 276.333 119.019 276.333 123.412 C 276.333 126.246,276.273 127.836,276.162 127.890 C 276.069 127.937,276.087 127.956,276.204 127.932 C 276.370 127.898,276.417 126.905,276.417 123.403 L 276.417 118.917 275.707 118.900 L 274.998 118.884 275.665 118.952 M278.377 118.953 C 278.631 118.991,279.006 118.990,279.211 118.951 C 279.416 118.911,279.208 118.880,278.750 118.881 C 278.292 118.882,278.124 118.915,278.377 118.953 M292.739 119.052 C 292.693 119.173,292.676 120.092,292.702 121.094 L 292.750 122.917 293.709 122.930 L 294.668 122.944 293.751 122.880 L 292.833 122.817 292.833 120.915 L 292.833 119.013 294.208 118.957 L 295.583 118.901 294.203 118.867 C 293.192 118.842,292.800 118.892,292.739 119.052 M310.294 118.951 C 310.501 118.991,310.801 118.990,310.960 118.948 C 311.120 118.906,310.950 118.874,310.583 118.875 C 310.217 118.877,310.086 118.911,310.294 118.951 M51.917 123.484 C 51.917 125.950,51.973 127.933,52.042 127.891 C 52.110 127.848,52.167 125.831,52.167 123.407 C 52.167 120.983,52.110 119.000,52.042 119.000 C 51.973 119.000,51.917 121.018,51.917 123.484 M53.667 121.000 L 53.667 123.000 56.208 122.963 L 58.750 122.926 56.282 122.875 L 53.813 122.824 53.865 120.912 C 53.893 119.860,53.860 118.999,53.792 119.000 C 53.723 119.000,53.667 119.900,53.667 121.000 M60.167 123.500 C 60.167 125.975,60.223 128.000,60.292 128.000 C 60.360 128.000,60.417 125.975,60.417 123.500 C 60.417 121.025,60.360 119.000,60.292 119.000 C 60.223 119.000,60.167 121.025,60.167 123.500 M99.250 123.500 C 99.250 125.975,99.306 128.000,99.375 128.000 C 99.444 128.000,99.500 125.975,99.500 123.500 C 99.500 121.025,99.444 119.000,99.375 119.000 C 99.306 119.000,99.250 121.025,99.250 123.500 M101.035 123.542 C 101.070 128.074,101.126 127.554,101.207 121.958 C 101.231 120.331,101.194 119.000,101.125 119.000 C 101.056 119.000,101.016 121.044,101.035 123.542 M128.500 123.383 L 128.583 127.750 128.628 123.511 C 128.652 121.180,128.615 119.215,128.545 119.144 C 128.474 119.074,128.454 120.981,128.500 123.383 M138.408 119.211 C 138.211 119.726,138.417 127.889,138.629 127.932 C 138.746 127.956,138.765 127.937,138.671 127.890 C 138.403 127.758,138.440 119.219,138.708 119.110 C 138.872 119.045,138.870 119.023,138.703 119.013 C 138.586 119.006,138.453 119.095,138.408 119.211 M149.496 119.110 C 149.606 119.164,149.667 120.726,149.667 123.500 C 149.667 126.274,149.606 127.836,149.496 127.890 C 149.402 127.937,149.421 127.956,149.537 127.932 C 149.703 127.898,149.750 126.923,149.750 123.500 C 149.750 120.077,149.703 119.102,149.537 119.068 C 149.421 119.044,149.402 119.063,149.496 119.110 M257.417 123.500 C 257.417 125.957,257.473 127.933,257.542 127.891 C 257.610 127.848,257.667 125.873,257.667 123.500 C 257.667 121.127,257.610 119.152,257.542 119.109 C 257.473 119.067,257.417 121.043,257.417 123.500 M342.293 121.958 C 342.372 127.433,342.431 127.944,342.465 123.458 C 342.484 121.006,342.444 119.000,342.375 119.000 C 342.306 119.000,342.269 120.331,342.293 121.958 M129.333 123.500 C 129.333 125.914,129.369 127.854,129.412 127.811 C 129.524 127.698,129.540 119.318,129.427 119.205 C 129.376 119.153,129.333 121.086,129.333 123.500 M349.298 122.667 C 349.272 124.592,349.306 126.167,349.375 126.167 C 349.444 126.167,349.500 124.592,349.500 122.667 C 349.500 120.742,349.465 119.167,349.423 119.167 C 349.381 119.167,349.325 120.742,349.298 122.667 M343.238 124.083 C 343.238 126.192,343.262 127.031,343.291 125.949 C 343.320 124.867,343.320 123.142,343.291 122.116 C 343.262 121.090,343.238 121.975,343.238 124.083 M75.916 121.335 C 75.852 121.438,75.845 121.567,75.900 121.622 C 75.955 121.677,76.000 121.635,76.000 121.528 C 76.000 121.421,76.112 121.333,76.250 121.333 C 76.458 121.333,76.500 121.667,76.500 123.333 C 76.500 125.243,76.303 125.889,75.943 125.162 C 75.896 125.069,75.877 125.087,75.901 125.204 C 75.924 125.321,76.108 125.441,76.310 125.471 C 76.808 125.544,76.805 121.297,76.307 121.201 C 76.155 121.172,75.979 121.232,75.916 121.335 M187.708 121.272 C 188.219 121.422,188.141 125.280,187.625 125.391 C 187.295 125.462,187.299 125.468,187.667 125.444 L 188.083 125.417 188.083 123.336 C 188.083 121.377,188.064 121.253,187.750 121.220 C 187.491 121.193,187.482 121.205,187.708 121.272 M73.628 122.954 C 73.928 122.991,74.378 122.990,74.628 122.952 C 74.878 122.914,74.633 122.884,74.083 122.885 C 73.533 122.886,73.328 122.917,73.628 122.954 M185.128 122.954 C 185.428 122.991,185.878 122.990,186.128 122.952 C 186.378 122.914,186.133 122.884,185.583 122.885 C 185.033 122.886,184.828 122.917,185.128 122.954 M53.697 125.792 C 53.680 127.006,53.723 128.000,53.792 128.000 C 53.860 128.001,53.897 127.344,53.872 126.542 C 53.789 123.837,53.727 123.571,53.697 125.792 M259.197 125.792 C 259.180 127.006,259.223 128.000,259.292 128.000 C 259.360 128.001,259.397 127.344,259.372 126.542 C 259.289 123.837,259.227 123.571,259.197 125.792 M292.697 125.698 C 292.680 126.862,292.723 127.849,292.792 127.891 C 292.860 127.934,292.897 127.320,292.872 126.526 C 292.790 123.863,292.727 123.568,292.697 125.698 M221.042 125.583 C 221.044 125.950,221.078 126.080,221.118 125.873 C 221.158 125.666,221.156 125.366,221.115 125.206 C 221.073 125.047,221.040 125.217,221.042 125.583 M326.109 125.125 C 326.067 125.194,326.880 125.250,327.917 125.250 C 328.953 125.250,329.767 125.194,329.724 125.125 C 329.682 125.056,328.868 125.000,327.917 125.000 C 326.965 125.000,326.152 125.056,326.109 125.125 M155.039 125.833 C 155.039 126.154,155.073 126.285,155.115 126.125 C 155.157 125.965,155.157 125.702,155.115 125.542 C 155.073 125.381,155.039 125.513,155.039 125.833 M198.702 127.030 L 198.736 128.750 198.791 127.125 C 198.844 125.552,199.135 124.909,199.395 125.792 C 199.462 126.019,199.473 126.010,199.447 125.750 C 199.426 125.545,199.269 125.396,199.040 125.363 C 198.672 125.311,198.667 125.335,198.702 127.030 M214.035 127.030 L 214.070 128.750 214.124 127.125 C 214.176 125.585,214.405 125.029,214.724 125.671 C 214.770 125.765,214.789 125.746,214.766 125.629 C 214.743 125.512,214.561 125.393,214.362 125.363 C 214.009 125.311,214.001 125.351,214.035 127.030 M359.868 127.042 L 359.903 128.750 359.958 127.107 C 360.009 125.569,360.033 125.470,360.340 125.550 C 360.520 125.597,360.625 125.568,360.574 125.484 C 360.117 124.745,359.834 125.370,359.868 127.042 M78.090 125.656 C 78.024 125.763,78.089 125.789,78.258 125.724 C 78.413 125.665,78.605 125.720,78.696 125.851 C 78.831 126.044,78.847 126.041,78.791 125.833 C 78.708 125.532,78.240 125.413,78.090 125.656 M173.539 126.167 C 173.539 126.487,173.573 126.619,173.615 126.458 C 173.657 126.298,173.657 126.035,173.615 125.875 C 173.573 125.715,173.539 125.846,173.539 126.167 M106.205 126.500 C 106.205 126.821,106.240 126.952,106.282 126.792 C 106.323 126.631,106.323 126.369,106.282 126.208 C 106.240 126.048,106.205 126.179,106.205 126.500 M264.709 126.917 C 264.711 127.283,264.745 127.414,264.785 127.206 C 264.824 126.999,264.823 126.699,264.781 126.540 C 264.739 126.380,264.707 126.550,264.709 126.917 M298.205 127.833 C 298.205 128.154,298.240 128.285,298.282 128.125 C 298.323 127.965,298.323 127.702,298.282 127.542 C 298.240 127.381,298.205 127.513,298.205 127.833 M190.039 128.000 C 190.039 128.321,190.073 128.452,190.115 128.292 C 190.157 128.131,190.157 127.869,190.115 127.708 C 190.073 127.548,190.039 127.679,190.039 128.000 M78.539 128.167 C 78.539 128.487,78.573 128.619,78.615 128.458 C 78.657 128.298,78.657 128.035,78.615 127.875 C 78.573 127.715,78.539 127.846,78.539 128.167 M35.846 128.375 C 35.855 128.626,35.891 128.667,35.955 128.500 C 36.007 128.362,36.132 128.195,36.233 128.128 C 36.346 128.052,36.305 128.004,36.125 128.003 C 35.929 128.001,35.838 128.123,35.846 128.375 M54.767 128.128 C 54.868 128.195,54.993 128.362,55.045 128.500 C 55.109 128.667,55.145 128.626,55.154 128.375 C 55.162 128.123,55.071 128.001,54.875 128.003 C 54.695 128.004,54.654 128.052,54.767 128.128 M74.625 128.118 C 74.831 128.157,75.169 128.157,75.375 128.118 C 75.581 128.078,75.412 128.045,75.000 128.045 C 74.587 128.045,74.419 128.078,74.625 128.118 M102.460 128.118 C 102.668 128.158,102.968 128.156,103.127 128.115 C 103.286 128.073,103.117 128.040,102.750 128.042 C 102.383 128.044,102.253 128.078,102.460 128.118 M114.180 128.375 C 114.189 128.626,114.225 128.667,114.288 128.500 C 114.340 128.362,114.466 128.195,114.567 128.128 C 114.680 128.052,114.638 128.004,114.458 128.003 C 114.262 128.001,114.171 128.123,114.180 128.375 M152.127 128.118 C 152.334 128.158,152.634 128.156,152.794 128.115 C 152.953 128.073,152.783 128.040,152.417 128.042 C 152.050 128.044,151.920 128.078,152.127 128.118 M169.794 128.118 C 170.001 128.158,170.301 128.156,170.460 128.115 C 170.620 128.073,170.450 128.040,170.083 128.042 C 169.717 128.044,169.586 128.078,169.794 128.118 M186.044 128.120 C 186.297 128.158,186.672 128.157,186.877 128.117 C 187.082 128.078,186.875 128.046,186.417 128.048 C 185.958 128.049,185.791 128.081,186.044 128.120 M260.625 128.118 C 260.831 128.157,261.169 128.157,261.375 128.118 C 261.581 128.078,261.412 128.045,261.000 128.045 C 260.587 128.045,260.419 128.078,260.625 128.118 M289.680 128.375 C 289.689 128.626,289.725 128.667,289.788 128.500 C 289.840 128.362,289.966 128.195,290.067 128.128 C 290.180 128.052,290.138 128.004,289.958 128.003 C 289.762 128.001,289.671 128.123,289.680 128.375 M294.125 128.118 C 294.331 128.157,294.669 128.157,294.875 128.118 C 295.081 128.078,294.912 128.045,294.500 128.045 C 294.087 128.045,293.919 128.078,294.125 128.118 M306.724 128.257 C 306.670 128.399,306.672 128.561,306.729 128.618 C 306.787 128.675,306.833 128.603,306.833 128.457 C 306.833 128.311,306.965 128.157,307.125 128.115 C 307.398 128.043,307.398 128.037,307.120 128.019 C 306.956 128.009,306.778 128.116,306.724 128.257 M316.767 128.128 C 316.868 128.195,316.993 128.362,317.045 128.500 C 317.109 128.667,317.145 128.626,317.154 128.375 C 317.162 128.123,317.071 128.001,316.875 128.003 C 316.695 128.004,316.654 128.052,316.767 128.128 M201.708 128.282 C 201.869 128.323,202.131 128.323,202.292 128.282 C 202.452 128.240,202.321 128.205,202.000 128.205 C 201.679 128.205,201.548 128.240,201.708 128.282 M217.127 128.285 C 217.334 128.324,217.634 128.323,217.794 128.281 C 217.953 128.239,217.783 128.207,217.417 128.209 C 217.050 128.211,216.920 128.245,217.127 128.285 M362.960 128.285 C 363.168 128.324,363.468 128.323,363.627 128.281 C 363.786 128.239,363.617 128.207,363.250 128.209 C 362.883 128.211,362.753 128.245,362.960 128.285 M151.125 128.790 C 151.606 128.823,152.394 128.823,152.875 128.790 C 153.356 128.756,152.962 128.728,152.000 128.728 C 151.037 128.728,150.644 128.756,151.125 128.790 " stroke="none" fill="#8ea8cf" fill-rule="evenodd"></path><path id="path4" d="M87.580 38.333 L 87.583 43.750 91.208 43.755 L 94.834 43.760 91.252 43.710 L 87.671 43.660 87.624 38.288 L 87.576 32.917 87.580 38.333 M106.041 61.375 L 106.000 89.833 109.625 89.795 L 113.250 89.757 109.709 89.709 L 106.168 89.660 106.125 61.288 L 106.082 32.917 106.041 61.375 M249.375 45.282 C 249.535 45.323,249.798 45.323,249.958 45.282 C 250.119 45.240,249.987 45.205,249.667 45.205 C 249.346 45.205,249.215 45.240,249.375 45.282 M251.960 45.285 C 252.168 45.324,252.468 45.323,252.627 45.281 C 252.786 45.239,252.617 45.207,252.250 45.209 C 251.883 45.211,251.753 45.245,251.960 45.285 M247.241 51.500 C 247.241 54.571,247.264 55.827,247.291 54.292 C 247.319 52.756,247.319 50.244,247.291 48.708 C 247.264 47.173,247.241 48.429,247.241 51.500 M264.917 51.000 C 265.275 51.367,265.605 51.667,265.651 51.667 C 265.697 51.667,265.441 51.367,265.083 51.000 C 264.725 50.633,264.395 50.333,264.349 50.333 C 264.303 50.333,264.559 50.633,264.917 51.000 M249.375 56.282 C 249.535 56.323,249.798 56.323,249.958 56.282 C 250.119 56.240,249.987 56.205,249.667 56.205 C 249.346 56.205,249.215 56.240,249.375 56.282 M251.708 56.282 C 251.869 56.323,252.131 56.323,252.292 56.282 C 252.452 56.240,252.321 56.205,252.000 56.205 C 251.679 56.205,251.548 56.240,251.708 56.282 M256.993 58.708 C 257.684 59.444,257.833 59.577,257.833 59.451 C 257.833 59.425,257.477 59.068,257.042 58.660 L 256.250 57.917 256.993 58.708 M271.209 64.250 C 271.211 64.617,271.245 64.747,271.285 64.540 C 271.324 64.332,271.323 64.032,271.281 63.873 C 271.239 63.714,271.207 63.883,271.209 64.250 M271.412 77.667 C 271.412 84.313,271.433 87.031,271.458 83.708 C 271.484 80.385,271.484 74.948,271.458 71.625 C 271.433 68.302,271.412 71.021,271.412 77.667 M178.744 92.667 C 178.744 96.929,178.765 98.673,178.792 96.542 C 178.818 94.410,178.818 90.923,178.792 88.792 C 178.765 86.660,178.744 88.404,178.744 92.667 M157.833 86.552 C 157.833 86.581,158.077 86.825,158.375 87.094 L 158.917 87.583 158.427 87.042 C 157.971 86.537,157.833 86.423,157.833 86.552 M190.493 88.875 C 191.184 89.611,191.333 89.743,191.333 89.618 C 191.333 89.591,190.977 89.235,190.542 88.826 L 189.750 88.083 190.493 88.875 M87.576 89.877 C 87.531 89.992,87.516 92.448,87.542 95.335 L 87.588 100.583 87.627 95.212 L 87.667 89.840 91.292 89.791 L 94.917 89.743 91.286 89.705 C 88.493 89.675,87.638 89.715,87.576 89.877 M161.750 90.500 C 162.201 90.958,162.608 91.333,162.654 91.333 C 162.700 91.333,162.368 90.958,161.917 90.500 C 161.465 90.042,161.058 89.667,161.013 89.667 C 160.967 89.667,161.299 90.042,161.750 90.500 M147.206 96.208 L 147.167 101.667 147.542 101.647 C 147.820 101.633,147.842 101.609,147.627 101.552 C 147.361 101.483,147.334 101.042,147.292 96.113 L 147.245 90.750 147.206 96.208 M163.909 94.208 L 163.250 94.917 163.958 94.258 C 164.617 93.645,164.743 93.500,164.617 93.500 C 164.590 93.500,164.271 93.819,163.909 94.208 M186.548 99.250 C 186.549 99.708,186.581 99.876,186.620 99.623 C 186.658 99.369,186.657 98.994,186.617 98.789 C 186.578 98.584,186.546 98.792,186.548 99.250 " stroke="none" fill="#f29171" fill-rule="evenodd"></path></g></svg>